<svg id="Ebene_1" data-name="Ebene 1" xmlns="http://www.w3.org/2000/svg" viewBox="0 0 170.39 102.1"><defs><style>.cls-1{fill:#ffffff;}.cls-2{fill:#202a60;}.cls-3{fill:#fff;}</style></defs><title>16eno_alliance_ing_logo_4c</title><path class="cls-1" d="M341.74,338.72c-.53,2.79.74,6.08,3.86,6.08,2.18,0,3.57-1.77,4.27-3.7l5.5,1a12,12,0,0,1-10.93,7.15c-6.7,0-9.41-5.91-8.67-12s4.85-12,11.58-12c5.79,0,9.9,2.75,8.42,13.43Zm8.58-3.82c.29-2.59-.41-5.14-3.33-5.14-2.75,0-4.19,2.67-4.56,5.14Z" transform="translate(-335.66 -247.17)"/><path class="cls-1" d="M366.92,328.16a12.36,12.36,0,0,1,7.19-2.87c2.51,0,5.87,1.52,5.18,7.19l-2,16.31h-6.08l1.69-13.84c.25-1.85.74-4.77-1.89-4.77-1.77,0-3.33,1.27-4.64,2.51l-2,16.1h-6.08l2.83-23h6.08Z" transform="translate(-335.66 -247.17)"/><path class="cls-1" d="M382.53,337.16c.78-6.12,4.85-12,11.58-12s9.41,5.87,8.63,12-4.85,12-11.54,12S381.79,343.24,382.53,337.16Zm14,0c.37-2.87.37-7.52-2.92-7.52s-4.44,4.64-4.81,7.52-.33,7.52,3,7.52S396.16,340,396.49,337.16Z" transform="translate(-335.66 -247.17)"/><path class="cls-1" d="M424.17,341.34c-1.56,4.81-5.42,7.93-10.56,7.93-6.7,0-9.41-5.91-8.67-12s4.85-12,11.58-12c5.13,0,8.26,3.12,8.67,7.93l-5.63.94c-.2-2.18-.49-4.4-3.57-4.4-3.29,0-4.44,4.64-4.81,7.52s-.33,7.52,3,7.52c3.08,0,3.94-2.22,4.64-4.44Z" transform="translate(-335.66 -247.17)"/><path class="cls-1" d="M432.93,338.72c-.53,2.79.74,6.08,3.86,6.08,2.18,0,3.57-1.77,4.27-3.7l5.5,1a12,12,0,0,1-10.93,7.15c-6.7,0-9.41-5.91-8.67-12s4.85-12,11.58-12c5.79,0,9.9,2.75,8.42,13.43Zm8.59-3.82c.29-2.59-.41-5.14-3.33-5.14-2.75,0-4.19,2.67-4.56,5.14Z" transform="translate(-335.66 -247.17)"/><path class="cls-1" d="M462.16,346.68c-2.46,1.6-3.9,2.59-6.82,2.59-4,0-6.9-2.71-6.41-6.82.78-6.49,9.49-7.8,14.46-8.34.78-3.2-.12-4.36-2.38-4.36a3.82,3.82,0,0,0-4,2.88l-5.71-.9c2-4.89,5.42-6.45,10.23-6.45,6.2,0,8.67,3,8.18,7.27L468.24,344a10.47,10.47,0,0,0,.25,4.81h-5.92Zm.7-8.42c-2.55.45-7.56.7-8,4.07-.16,1.36.37,2.46,1.81,2.46a7.8,7.8,0,0,0,5.75-3Z" transform="translate(-335.66 -247.17)"/><path class="cls-1" d="M481.48,328.16a12.37,12.37,0,0,1,7.19-2.87c2.51,0,5.87,1.52,5.18,7.19l-2,16.31h-6.08l1.69-13.84c.25-1.85.74-4.77-1.89-4.77-1.77,0-3.33,1.27-4.64,2.51l-2,16.1h-6.08l2.84-23h6.08Z" transform="translate(-335.66 -247.17)"/><path class="cls-1" d="M497.41,329.49a5,5,0,0,1,4.83-4.3,3.74,3.74,0,0,1,3.78,4.3,5,5,0,0,1-4.84,4.3A3.73,3.73,0,0,1,497.41,329.49Zm8,0a3.12,3.12,0,0,0-3.2-3.64,4.17,4.17,0,0,0-4.09,3.64,3.12,3.12,0,0,0,3.2,3.65A4.19,4.19,0,0,0,505.37,329.49Zm-3.24-2.59c1.48,0,1.69.83,1.6,1.51a1.63,1.63,0,0,1-1.37,1.36l.8,2.51h-.72l-.77-2.41h-1.05l-.29,2.41h-.66l.66-5.38Zm-1.44,2.38h.87c1.1,0,1.33-.38,1.38-.88.09-.69-.33-.91-1-.91h-1Z" transform="translate(-335.66 -247.17)"/><path class="cls-2" d="M468.07,298.55c0,8.74-24.68,15.83-55.12,15.83s-55.11-7.08-55.11-15.83,22.51-51.37,52.95-51.37,57.28,42.62,57.28,51.37" transform="translate(-335.66 -247.17)"/><path class="cls-3" d="M449.57,281.32c0-.61-2.06-1.09-3.07-1.36s-4.55-.74-4.76-1.09a28.74,28.74,0,0,0-8.11-10.23c-5.21-4-13.84-7.67-22.47-7-11.18.83-21.2,6.93-29.17,16.63-4.85,5.91-10.29,10.34-6.21,12.82,2,1.2,11.79,5.4,16.73,7.25,5.26,2,15.23,6.19,26.2,5.17,9.07-.84,18.82-7.7,22.87-13.67,1.33-2.21-4.72-3.62-6.38-.85-2.41,4-7.67,9.46-19.47,9.94-15.87.64-29.55-9.58-31.75-12-1.68-1.87,8.52-15.77,19.39-19.36,11.23-3.71,22.06-1.95,32.77,9.14.91.94,2,2.78-.3,2.66-1.94-.09-7.65-1.49-15-.64-9.63,1.12-20.56,3.62-15.63,4.72.73.16,12-1.13,19.73-1.21a101.88,101.88,0,0,1,17.27,1.67c1.17.2,6.45,1.33,6.74.65A10.56,10.56,0,0,0,449.57,281.32Z" transform="translate(-335.66 -247.17)"/></svg>